<svg width="137" height="44" viewBox="0 0 137 44" fill="none" xmlns="http://www.w3.org/2000/svg">
<path d="M8.04013 17.8616H33.0495C34.9219 17.8616 36.3368 19.5579 36.0008 21.3999L35.7874 22.5702C35.5023 24.1333 34.048 25.203 32.471 25.0097L7.78839 21.9832C6.91774 21.8764 6.2091 21.2321 6.02021 20.3755C5.73555 19.0846 6.71822 17.8616 8.04013 17.8616Z" fill="#FF9494"/>
<path d="M11.834 34.9175L31.8506 32.6824C33.0676 32.5465 34.0421 31.6111 34.2276 30.4007C34.4621 28.8704 33.3687 27.4552 31.8288 27.2959L10.9071 25.1313C8.85352 24.9188 7.20404 26.7959 7.67876 28.8051L8.58146 32.6259C8.93028 34.1022 10.3263 35.0859 11.834 34.9175Z" fill="#FF9494"/>
<path d="M10.3613 41.1592L10.271 40.6602C9.9581 38.9313 11.1912 37.3049 12.9402 37.1393L29.1279 35.6067C31.1723 35.4132 32.8025 37.2846 32.3303 39.2832L31.8503 41.3148C31.5304 42.6687 30.3218 43.625 28.9307 43.625H13.3133C11.8625 43.625 10.6196 42.5868 10.3613 41.1592Z" fill="#FF9494"/>
<path d="M31.3045 12.2095C29.2175 13.1559 25.7972 14.2688 24.3479 14.707C25.2589 14.926 27.6523 15.2327 29.938 14.707C32.7952 14.0497 33.9132 13.5239 36.6461 13.6554C38.8325 13.7605 40.0416 15.1013 40.3729 15.7585C40.671 14.3915 39.9174 12.8229 39.5033 12.2095C40.7952 12.2095 41.7807 12.8229 42.112 13.1296C41.2424 8.00322 33.9132 11.0265 31.3045 12.2095Z" fill="#FF9494"/>
<path d="M28.4473 5.6372C30.2362 8.79189 25.3831 12.6476 22.733 14.1812C26.8324 14.707 30.6834 10.5007 30.8076 8.39756C30.907 6.71505 29.2755 5.85627 28.4473 5.6372Z" fill="#FF9494"/>
<path d="M9.44104 5.37431C8.646 7.58259 13.5818 12.1657 16.1491 14.1812C14.5342 14.1812 9.68949 11.0265 8.44724 9.18623C7.45345 7.71404 8.69569 6.03153 9.44104 5.37431Z" fill="#FF9494"/>
<path d="M8.81992 13.1296C12.0994 13.1296 13.5818 13.8306 13.9131 14.1812C10.0622 13.6554 7.205 15.2327 3.85095 15.3642C1.16771 15.4693 0.165632 14.6193 0 14.1812C0.496897 14.6018 1.86336 14.3564 2.48448 14.1812C1.59007 13.7605 1.36647 12.1657 1.36647 11.4208C1.73914 12.078 4.72052 13.1296 8.81992 13.1296Z" fill="#FF9494"/>
<path d="M7.08078 5.6372C13.0435 -0.356727 17.6812 8.48519 19.2547 13.6554C17.7641 0.642263 13.1678 0.116476 10.1864 0.510813C7.80128 0.826283 7.12219 4.05985 7.08078 5.6372Z" fill="#FF9494"/>
<path d="M30.8076 5.37431C25.5405 2.32477 21.6564 8.13467 20.3728 11.4208C20.3728 9.71201 23.4784 2.74539 26.584 2.21961C29.0685 1.79898 30.4349 4.14748 30.8076 5.37431Z" fill="#FF9494"/>
<path d="M65.008 17.0171C65.36 17.1931 65.56 17.4651 65.608 17.8331C65.672 18.2011 65.584 18.5371 65.344 18.8411C65.168 19.0811 64.936 19.2171 64.648 19.2491C64.376 19.2811 64.104 19.2251 63.832 19.0811C63.368 18.8411 62.88 18.6491 62.368 18.5051C61.856 18.3611 61.312 18.2891 60.736 18.2891C59.824 18.2891 59 18.4411 58.264 18.7451C57.544 19.0331 56.92 19.4571 56.392 20.0171C55.864 20.5611 55.456 21.2091 55.168 21.9611C54.896 22.7131 54.76 23.5451 54.76 24.4571C54.76 25.4651 54.912 26.3611 55.216 27.1451C55.52 27.9131 55.936 28.5691 56.464 29.1131C57.008 29.6411 57.64 30.0411 58.36 30.3131C59.096 30.5691 59.888 30.6971 60.736 30.6971C61.28 30.6971 61.808 30.6331 62.32 30.5051C62.848 30.3771 63.344 30.1851 63.808 29.9291C64.096 29.7851 64.376 29.7371 64.648 29.7851C64.936 29.8171 65.168 29.9531 65.344 30.1931C65.616 30.5291 65.712 30.8731 65.632 31.2251C65.568 31.5611 65.368 31.8171 65.032 31.9931C64.632 32.2171 64.192 32.4091 63.712 32.5691C63.232 32.7291 62.744 32.8571 62.248 32.9531C61.752 33.0491 61.248 33.0971 60.736 33.0971C59.584 33.0971 58.496 32.9051 57.472 32.5211C56.448 32.1371 55.536 31.5771 54.736 30.8411C53.936 30.1051 53.304 29.2011 52.84 28.1291C52.392 27.0571 52.168 25.8331 52.168 24.4571C52.168 23.2251 52.376 22.0891 52.792 21.0491C53.224 19.9931 53.824 19.0891 54.592 18.3371C55.376 17.5691 56.288 16.9771 57.328 16.5611C58.368 16.1291 59.504 15.9131 60.736 15.9131C61.504 15.9131 62.248 16.0091 62.968 16.2011C63.704 16.3931 64.384 16.6651 65.008 17.0171ZM78.4178 20.0411C78.7698 20.0411 79.0578 20.1611 79.2818 20.4011C79.5058 20.6251 79.6178 20.9131 79.6178 21.2651V31.6331C79.6178 31.9851 79.5058 32.2811 79.2818 32.5211C79.0578 32.7451 78.7698 32.8571 78.4178 32.8571C78.0818 32.8571 77.7938 32.7451 77.5538 32.5211C77.3298 32.2811 77.2178 31.9851 77.2178 31.6331V29.9051L77.7218 29.9771C77.7218 30.2651 77.6018 30.5851 77.3618 30.9371C77.1378 31.2891 76.8258 31.6331 76.4258 31.9691C76.0258 32.2891 75.5538 32.5611 75.0098 32.7851C74.4658 32.9931 73.8818 33.0971 73.2578 33.0971C72.1538 33.0971 71.1618 32.8171 70.2818 32.2571C69.4018 31.6811 68.7058 30.8971 68.1938 29.9051C67.6818 28.9131 67.4258 27.7851 67.4258 26.5211C67.4258 25.2251 67.6818 24.0891 68.1938 23.1131C68.7058 22.1211 69.3938 21.3451 70.2578 20.7851C71.1378 20.2251 72.1138 19.9451 73.1858 19.9451C73.8738 19.9451 74.5058 20.0571 75.0818 20.2811C75.6738 20.5051 76.1858 20.7931 76.6178 21.1451C77.0498 21.4971 77.3778 21.8731 77.6018 22.2731C77.8418 22.6571 77.9618 23.0251 77.9618 23.3771L77.2178 23.4491V21.2651C77.2178 20.9291 77.3298 20.6411 77.5538 20.4011C77.7938 20.1611 78.0818 20.0411 78.4178 20.0411ZM73.5218 30.8891C74.2738 30.8891 74.9378 30.6971 75.5138 30.3131C76.0898 29.9291 76.5378 29.4091 76.8578 28.7531C77.1778 28.0811 77.3378 27.3371 77.3378 26.5211C77.3378 25.6891 77.1778 24.9451 76.8578 24.2891C76.5378 23.6331 76.0898 23.1131 75.5138 22.7291C74.9378 22.3451 74.2738 22.1531 73.5218 22.1531C72.7858 22.1531 72.1298 22.3451 71.5538 22.7291C70.9938 23.1131 70.5458 23.6331 70.2098 24.2891C69.8898 24.9451 69.7298 25.6891 69.7298 26.5211C69.7298 27.3371 69.8898 28.0811 70.2098 28.7531C70.5458 29.4091 70.9938 29.9291 71.5538 30.3131C72.1298 30.6971 72.7858 30.8891 73.5218 30.8891ZM84.18 32.8571C83.828 32.8571 83.54 32.7451 83.316 32.5211C83.092 32.2811 82.98 31.9851 82.98 31.6331V21.4571C82.98 21.1051 83.092 20.8171 83.316 20.5931C83.54 20.3531 83.828 20.2331 84.18 20.2331C84.516 20.2331 84.796 20.3531 85.02 20.5931C85.26 20.8171 85.38 21.1051 85.38 21.4571V24.1451L85.14 23.1131C85.268 22.6651 85.46 22.2491 85.716 21.8651C85.988 21.4811 86.308 21.1451 86.676 20.8571C87.044 20.5691 87.452 20.3451 87.9 20.1851C88.364 20.0251 88.844 19.9451 89.34 19.9451C89.756 19.9451 90.116 20.0571 90.42 20.2811C90.724 20.5051 90.876 20.7851 90.876 21.1211C90.876 21.5531 90.764 21.8731 90.54 22.0811C90.316 22.2731 90.068 22.3691 89.796 22.3691C89.556 22.3691 89.324 22.3211 89.1 22.2251C88.876 22.1131 88.612 22.0571 88.308 22.0571C87.972 22.0571 87.628 22.1451 87.276 22.3211C86.924 22.4971 86.604 22.7611 86.316 23.1131C86.028 23.4491 85.796 23.8491 85.62 24.3131C85.46 24.7771 85.38 25.2971 85.38 25.8731V31.6331C85.38 31.9851 85.26 32.2811 85.02 32.5211C84.796 32.7451 84.516 32.8571 84.18 32.8571ZM94.2113 32.8571C93.8593 32.8571 93.5713 32.7451 93.3473 32.5211C93.1233 32.2811 93.0113 31.9851 93.0113 31.6331V21.4571C93.0113 21.1051 93.1233 20.8171 93.3473 20.5931C93.5713 20.3531 93.8593 20.2331 94.2113 20.2331C94.5473 20.2331 94.8273 20.3531 95.0513 20.5931C95.2913 20.8171 95.4113 21.1051 95.4113 21.4571V24.1451L95.1713 23.1131C95.2993 22.6651 95.4913 22.2491 95.7473 21.8651C96.0193 21.4811 96.3393 21.1451 96.7073 20.8571C97.0753 20.5691 97.4833 20.3451 97.9313 20.1851C98.3953 20.0251 98.8753 19.9451 99.3713 19.9451C99.7873 19.9451 100.147 20.0571 100.451 20.2811C100.755 20.5051 100.907 20.7851 100.907 21.1211C100.907 21.5531 100.795 21.8731 100.571 22.0811C100.347 22.2731 100.099 22.3691 99.8273 22.3691C99.5873 22.3691 99.3553 22.3211 99.1313 22.2251C98.9073 22.1131 98.6433 22.0571 98.3393 22.0571C98.0033 22.0571 97.6593 22.1451 97.3073 22.3211C96.9553 22.4971 96.6353 22.7611 96.3473 23.1131C96.0593 23.4491 95.8273 23.8491 95.6513 24.3131C95.4913 24.7771 95.4113 25.2971 95.4113 25.8731V31.6331C95.4113 31.9851 95.2913 32.2811 95.0513 32.5211C94.8273 32.7451 94.5473 32.8571 94.2113 32.8571ZM102.875 20.3771H108.515C108.835 20.3771 109.099 20.4891 109.307 20.7131C109.531 20.9211 109.643 21.1851 109.643 21.5051C109.643 21.8091 109.531 22.0651 109.307 22.2731C109.099 22.4811 108.835 22.5851 108.515 22.5851H102.875C102.555 22.5851 102.283 22.4811 102.059 22.2731C101.851 22.0491 101.747 21.7851 101.747 21.4811C101.747 21.1611 101.851 20.8971 102.059 20.6891C102.283 20.4811 102.555 20.3771 102.875 20.3771ZM105.395 17.2571C105.747 17.2571 106.035 17.3771 106.259 17.6171C106.483 17.8411 106.595 18.1291 106.595 18.4811V29.6171C106.595 29.9051 106.643 30.1371 106.739 30.3131C106.835 30.4891 106.963 30.6091 107.123 30.6731C107.299 30.7371 107.475 30.7691 107.651 30.7691C107.827 30.7691 107.979 30.7371 108.107 30.6731C108.251 30.6091 108.419 30.5771 108.611 30.5771C108.803 30.5771 108.979 30.6651 109.139 30.8411C109.299 31.0171 109.379 31.2571 109.379 31.5611C109.379 31.9451 109.171 32.2571 108.755 32.4971C108.339 32.7371 107.891 32.8571 107.411 32.8571C107.139 32.8571 106.819 32.8331 106.451 32.7851C106.083 32.7371 105.723 32.6171 105.371 32.4251C105.035 32.2331 104.755 31.9291 104.531 31.5131C104.307 31.0811 104.195 30.4811 104.195 29.7131V18.4811C104.195 18.1291 104.307 17.8411 104.531 17.6171C104.771 17.3771 105.059 17.2571 105.395 17.2571ZM118.063 33.0971C116.735 33.0971 115.583 32.8251 114.607 32.2811C113.631 31.7211 112.871 30.9611 112.327 30.0011C111.799 29.0251 111.535 27.9131 111.535 26.6651C111.535 25.2571 111.815 24.0571 112.375 23.0651C112.951 22.0571 113.695 21.2891 114.607 20.7611C115.519 20.2171 116.487 19.9451 117.511 19.9451C118.295 19.9451 119.039 20.1051 119.743 20.4251C120.447 20.7291 121.071 21.1611 121.615 21.7211C122.175 22.2651 122.615 22.9131 122.935 23.6651C123.255 24.4011 123.423 25.2091 123.439 26.0891C123.423 26.4091 123.295 26.6731 123.055 26.8811C122.815 27.0891 122.535 27.1931 122.215 27.1931H112.879L112.303 25.1531H121.327L120.871 25.5851V24.9851C120.839 24.4251 120.655 23.9371 120.319 23.5211C119.983 23.0891 119.567 22.7611 119.071 22.5371C118.575 22.2971 118.055 22.1771 117.511 22.1771C117.031 22.1771 116.567 22.2571 116.119 22.4171C115.687 22.5611 115.295 22.8011 114.943 23.1371C114.607 23.4731 114.335 23.9211 114.127 24.4811C113.935 25.0251 113.839 25.7051 113.839 26.5211C113.839 27.4011 114.023 28.1691 114.391 28.8251C114.759 29.4811 115.255 29.9931 115.879 30.3611C116.503 30.7131 117.191 30.8891 117.943 30.8891C118.535 30.8891 119.023 30.8331 119.407 30.7211C119.791 30.5931 120.111 30.4411 120.367 30.2651C120.623 30.0891 120.847 29.9211 121.039 29.7611C121.279 29.6171 121.519 29.5451 121.759 29.5451C122.047 29.5451 122.287 29.6491 122.479 29.8571C122.671 30.0491 122.767 30.2811 122.767 30.5531C122.767 30.9051 122.591 31.2251 122.239 31.5131C121.807 31.9291 121.207 32.2971 120.439 32.6171C119.687 32.9371 118.895 33.0971 118.063 33.0971ZM125.408 30.8891C125.264 30.6651 125.2 30.4091 125.216 30.1211C125.232 29.8171 125.4 29.5611 125.72 29.3531C125.944 29.2091 126.176 29.1531 126.416 29.1851C126.672 29.2011 126.912 29.3211 127.136 29.5451C127.584 30.0411 128.08 30.4331 128.624 30.7211C129.184 31.0091 129.856 31.1531 130.64 31.1531C130.96 31.1371 131.288 31.0891 131.624 31.0091C131.96 30.9131 132.248 30.7531 132.488 30.5291C132.728 30.2891 132.848 29.9451 132.848 29.4971C132.848 29.0971 132.72 28.7771 132.464 28.5371C132.208 28.2971 131.872 28.1051 131.456 27.9611C131.04 27.8011 130.592 27.6571 130.112 27.5291C129.6 27.3851 129.08 27.2251 128.552 27.0491C128.04 26.8731 127.576 26.6491 127.16 26.3771C126.744 26.0891 126.4 25.7211 126.128 25.2731C125.872 24.8251 125.744 24.2731 125.744 23.6171C125.744 22.8651 125.952 22.2171 126.368 21.6731C126.8 21.1291 127.352 20.7051 128.024 20.4011C128.712 20.0971 129.456 19.9451 130.256 19.9451C130.72 19.9451 131.208 20.0091 131.72 20.1371C132.232 20.2491 132.728 20.4331 133.208 20.6891C133.688 20.9451 134.104 21.2811 134.456 21.6971C134.616 21.9051 134.704 22.1531 134.72 22.4411C134.752 22.7291 134.624 22.9851 134.336 23.2091C134.144 23.3691 133.912 23.4411 133.64 23.4251C133.368 23.4091 133.144 23.3211 132.968 23.1611C132.664 22.7771 132.272 22.4811 131.792 22.2731C131.312 22.0491 130.768 21.9371 130.16 21.9371C129.856 21.9371 129.536 21.9851 129.2 22.0811C128.88 22.1611 128.608 22.3131 128.384 22.5371C128.16 22.7611 128.048 23.0891 128.048 23.5211C128.048 23.9211 128.176 24.2411 128.432 24.4811C128.704 24.7211 129.056 24.9211 129.488 25.0811C129.92 25.2411 130.392 25.3851 130.904 25.5131C131.4 25.6411 131.888 25.7931 132.368 25.9691C132.864 26.1451 133.304 26.3771 133.688 26.6651C134.088 26.9371 134.408 27.2971 134.648 27.7451C134.904 28.1771 135.032 28.7291 135.032 29.4011C135.032 30.1851 134.8 30.8571 134.336 31.4171C133.888 31.9611 133.312 32.3771 132.608 32.6651C131.92 32.9531 131.192 33.0971 130.424 33.0971C129.512 33.0971 128.6 32.9371 127.688 32.6171C126.792 32.2811 126.032 31.7051 125.408 30.8891Z" fill="#4F4F4F"/>
</svg>
