<svg xmlns="http://www.w3.org/2000/svg" xmlns:xlink="http://www.w3.org/1999/xlink" width="500" zoomAndPan="magnify" viewBox="0 0 375 374.999991" height="500" preserveAspectRatio="xMidYMid meet" version="1.0"><defs><clipPath id="b0d2fb336f"><path d="M 0 14.316406 L 375 14.316406 L 375 375 L 0 375 Z M 0 14.316406 " clip-rule="nonzero"/></clipPath><clipPath id="fd5c0ec45f"><path d="M 64 58.648438 L 320.921875 58.648438 L 320.921875 324.652344 L 64 324.652344 Z M 64 58.648438 " clip-rule="nonzero"/></clipPath></defs><g clip-path="url(#b0d2fb336f)"><path fill="#ff7b7b" d="M 321.542969 67.886719 C 289.105469 35.449219 244.277344 15.375 194.777344 15.375 C 145.273438 15.375 100.445312 35.441406 68.007812 67.886719 C 50.792969 85.101562 37.074219 105.785156 27.980469 128.8125 C 50.164062 84.683594 67.519531 103.445312 67.519531 103.445312 C 46.417969 99.414062 32.945312 119.613281 27.910156 129.007812 C 23.558594 140.058594 20.277344 151.644531 18.1875 163.636719 C 20.554688 156.917969 27.378906 141.984375 42.585938 136.851562 C 62.457031 130.140625 47.84375 136.398438 34.761719 147.34375 C 24.472656 155.960938 19.472656 163.175781 17.804688 165.859375 C 16.335938 174.980469 15.546875 184.324219 15.5 193.851562 C 16.582031 184.695312 20.507812 167.507812 34.832031 165.515625 C 53.859375 162.863281 21.03125 177.035156 15.527344 197.609375 C 16.308594 245.949219 36.214844 289.644531 68.015625 321.433594 C 100.453125 353.875 145.273438 373.949219 194.785156 373.949219 C 244.292969 373.949219 289.113281 353.882812 321.554688 321.433594 C 353.992188 288.996094 374.066406 244.164062 374.066406 194.664062 C 374.066406 145.164062 353.984375 100.335938 321.542969 67.886719 M 17.972656 159.515625 C 15.8125 152.804688 0.0703125 148.65625 8.394531 143.5625 C 15.8125 139.015625 18.117188 152.007812 18.65625 156.242188 C 18.894531 155.144531 19.144531 154.054688 19.402344 152.972656 C 20.738281 140.566406 20.925781 117.070312 6.167969 103.199219 C 6.167969 103.199219 29.503906 98.003906 22.664062 141.035156 C 26.09375 130.027344 30.542969 119.472656 35.914062 109.480469 C 39.210938 101.214844 43.570312 87.730469 48.84375 76.953125 C 47.816406 76.03125 44.875 72.539062 45.734375 63.253906 C 45.085938 62.96875 44.671875 62.296875 44.75 61.550781 C 45.148438 58.03125 46.957031 53.644531 46.964844 53.628906 C 47.292969 52.777344 48.242188 52.351562 49.09375 52.679688 C 49.945312 53.007812 50.367188 53.953125 50.042969 54.804688 C 50.042969 54.816406 48.382812 58.847656 48.027344 61.914062 C 47.949219 62.667969 47.375 63.242188 46.65625 63.367188 C 45.867188 71.804688 48.257812 75.09375 49.269531 76.085938 C 51.042969 72.550781 52.921875 69.339844 54.890625 66.746094 C 54.90625 66.726562 60.011719 60.0625 63.441406 54.816406 C 62.988281 53.6875 61.332031 48.628906 63.886719 40.855469 C 63.636719 40.582031 63.53125 40.191406 63.644531 39.808594 C 64.3125 37.523438 66.003906 34.8125 66.011719 34.800781 C 66.324219 34.269531 67.003906 34.101562 67.527344 34.410156 C 68.058594 34.722656 68.226562 35.40625 67.917969 35.925781 C 67.917969 35.9375 66.359375 38.417969 65.78125 40.414062 C 65.648438 40.890625 65.214844 41.199219 64.753906 41.21875 C 62.652344 47.679688 63.558594 52.113281 64.097656 53.847656 C 67.679688 48.742188 73.679688 43.65625 73.695312 43.648438 L 73.996094 44 L 74.300781 44.355469 C 74.28125 44.375 67.765625 49.886719 64.363281 55.117188 C 62.15625 58.5 59.214844 62.535156 57.371094 65 C 60.269531 63.039062 65.234375 59.796875 68.875 58.03125 C 68.910156 57.695312 69.085938 57.386719 69.398438 57.191406 C 71.160156 56.101562 73.136719 53.9375 73.148438 53.929688 C 73.574219 53.484375 74.273438 53.476562 74.714844 53.894531 C 75.160156 54.316406 75.167969 55.019531 74.75 55.460938 C 74.742188 55.46875 72.589844 57.828125 70.566406 59.085938 C 70.117188 59.363281 69.546875 59.28125 69.195312 58.917969 C 64.105469 61.398438 56.46875 66.746094 55.617188 67.339844 L 49.855469 77.035156 L 39.359375 103.324219 C 47.144531 90.117188 56.554688 77.984375 67.324219 67.214844 C 99.941406 34.597656 144.992188 14.425781 194.757812 14.425781 C 244.523438 14.425781 289.585938 34.597656 322.191406 67.214844 C 354.808594 99.832031 374.980469 144.882812 374.980469 194.648438 C 374.980469 244.414062 354.808594 289.472656 322.191406 322.082031 C 289.574219 354.699219 244.523438 374.871094 194.757812 374.871094 C 144.992188 374.871094 99.941406 354.699219 67.324219 322.082031 C 34.707031 289.464844 14.535156 244.414062 14.535156 194.648438 C 14.535156 190.527344 14.675781 186.433594 14.953125 182.371094 C 14.871094 181.664062 13.160156 166.640625 5.148438 159.167969 C 4.308594 159.117188 3.144531 158.496094 2.128906 157.46875 C 0.648438 155.988281 0.0078125 154.230469 0.691406 153.539062 C 1.382812 152.847656 3.136719 153.488281 4.625 154.96875 C 6.054688 156.386719 6.699219 158.070312 6.132812 158.8125 C 11.734375 164.308594 14.242188 173.304688 15.269531 178.429688 C 15.847656 172.027344 16.75 165.71875 17.972656 159.515625 Z M 76.824219 41.492188 L 74.007812 44.011719 C 74.007812 44.011719 81.300781 44.222656 81.425781 41.121094 C 81.550781 38.019531 77.117188 40.375 76.054688 42.195312 C 76.054688 42.195312 76.835938 39.878906 76.398438 38.515625 C 75.964844 37.152344 73.421875 37.152344 73.359375 38.886719 C 73.296875 40.625 74.015625 44.011719 74.015625 44.011719 " fill-opacity="1" fill-rule="evenodd"/></g><g clip-path="url(#fd5c0ec45f)"><path fill="#ff7b7b" d="M 320.09375 133.328125 C 319.554688 128.609375 319.058594 123.765625 317.765625 119.179688 C 317.765625 119.167969 317.753906 119.167969 317.753906 119.152344 C 317.953125 119.097656 318.144531 119.046875 318.34375 118.992188 C 318.574219 118.9375 318.53125 118.546875 318.289062 118.574219 C 318.144531 118.589844 318.007812 118.617188 317.859375 118.628906 C 316.839844 117.40625 315.4375 116.664062 314.027344 115.898438 C 312.320312 114.96875 310.53125 114.109375 308.753906 113.289062 C 305.621094 111.835938 302.40625 110.503906 299.179688 109.242188 C 298.480469 107.464844 297.484375 105.785156 296.179688 104.304688 C 295.75 103.808594 295.265625 103.335938 294.765625 102.894531 C 294.753906 102.796875 294.765625 102.703125 294.742188 102.609375 C 292.683594 96.585938 290.113281 90.574219 285.757812 85.8125 C 281.628906 81.304688 276.046875 78.308594 269.992188 77.460938 C 255.816406 75.46875 243.808594 83.523438 231.769531 89.605469 C 228.273438 91.367188 224.695312 92.96875 220.929688 94.070312 C 219.167969 94.59375 217.378906 95.078125 215.5625 95.402344 C 214.082031 95.671875 212.535156 96.035156 211.015625 96.25 C 213.492188 90.480469 216.449219 84.964844 220.621094 80.082031 C 223.835938 76.316406 227.695312 72.535156 232.09375 70.195312 C 234.230469 69.054688 237.78125 68.019531 239.410156 70.53125 C 240.847656 72.765625 238.992188 75.699219 237.863281 77.660156 C 236.410156 80.164062 234.660156 82.476562 232.820312 84.707031 C 230.910156 87.023438 228.851562 89.375 226.566406 91.3125 C 226.363281 91.488281 226.632812 91.824219 226.847656 91.675781 C 229.429688 90.046875 231.890625 88.488281 234.136719 86.402344 C 236.289062 84.398438 238.117188 82.101562 239.71875 79.636719 C 240.578125 78.308594 241.507812 76.828125 242.113281 75.265625 C 244.414062 72.347656 246.726562 68.746094 245.71875 64.9375 C 244.734375 61.210938 241.226562 58.886719 237.457031 58.992188 C 235.050781 59.0625 232.644531 59.691406 230.289062 60.148438 C 227.613281 60.675781 224.921875 61.199219 222.234375 61.695312 C 217.582031 62.542969 212.320312 62.933594 208.246094 65.570312 C 208.207031 65.597656 208.164062 65.625 208.140625 65.652344 C 201.304688 65.691406 194.582031 60.945312 187.828125 60.082031 C 184.375 59.640625 180.203125 59.921875 177.890625 62.878906 C 174.890625 66.726562 178.199219 70.964844 177.285156 75.09375 C 174.460938 71.234375 170.910156 68.03125 166.863281 65.488281 C 164.710938 64.132812 162.355469 63.015625 159.773438 62.949219 C 157.351562 62.878906 155.496094 63.820312 153.667969 65.289062 C 152.59375 66.148438 151.53125 67.0625 150.183594 67.492188 C 148.867188 67.910156 147.414062 67.882812 146.121094 68.433594 C 145.464844 68.71875 144.722656 69.445312 144.441406 70.171875 C 142.71875 69.054688 140.339844 69.214844 138.375 69.550781 C 135.027344 70.128906 131.703125 70.964844 128.394531 71.757812 C 125.046875 72.550781 121.738281 73.503906 118.390625 74.3125 C 115.886719 74.917969 113.132812 75.496094 111.046875 77.082031 C 109.269531 78.441406 108.382812 80.648438 109.246094 82.785156 C 110.160156 85.070312 112.527344 86.566406 114.570312 87.75 C 118.753906 90.183594 123.421875 91.824219 127.964844 93.449219 C 129.6875 94.070312 131.597656 94.730469 133.371094 95.601562 C 132.957031 95.695312 132.539062 95.792969 132.121094 95.886719 C 126.703125 94.3125 121.199219 93.074219 115.511719 92.792969 C 107.1875 92.375 98.257812 93.789062 90.859375 97.78125 C 86.40625 100.175781 81.886719 103.808594 79.183594 108.339844 C 75.121094 109.414062 71.085938 110.585938 67.105469 111.984375 C 66.703125 112.132812 66.730469 112.832031 67.214844 112.792969 C 67.296875 112.777344 67.363281 112.777344 67.441406 112.765625 C 70.242188 114.917969 73.550781 116.410156 76.710938 117.984375 C 77.152344 124.601562 81.859375 130.371094 87.644531 133.421875 C 88.261719 133.746094 88.8125 132.832031 88.195312 132.46875 C 84.902344 130.546875 81.902344 127.882812 80.140625 124.453125 C 78.539062 121.332031 78.378906 118.304688 79.304688 114.984375 C 81.242188 108.070312 87.578125 103.121094 93.992188 100.511719 C 101.390625 97.5 109.269531 96.234375 117.246094 96.933594 C 125.761719 97.675781 133.855469 100.660156 141.941406 103.269531 C 146.472656 104.722656 151.074219 106.082031 155.765625 106.886719 C 159.734375 107.558594 164.667969 108.40625 168.652344 107.183594 C 167.535156 109.335938 167.078125 111.757812 167.441406 114.191406 C 167.441406 114.191406 167.441406 114.191406 167.425781 114.191406 C 162.128906 118.761719 155.46875 121.519531 148.609375 122.71875 C 140.621094 124.117188 132.671875 122.21875 124.671875 122.824219 C 117.945312 123.335938 111.222656 125.621094 105.789062 129.671875 C 102.101562 132.414062 96.089844 138.46875 99.601562 143.429688 C 101.496094 146.105469 105.332031 146.347656 108.289062 145.878906 C 112.257812 145.257812 116.277344 143.078125 119.773438 141.195312 C 119.949219 141.101562 119.828125 140.847656 119.640625 140.875 C 116.277344 141.519531 113.304688 143.402344 109.902344 143.953125 C 107.253906 144.382812 102.34375 144.625 101.160156 141.464844 C 100.207031 138.910156 102.53125 136.003906 104.160156 134.296875 C 106.164062 132.1875 108.585938 130.546875 111.179688 129.253906 C 117.152344 126.296875 123.796875 125.394531 130.398438 125.757812 C 134.339844 125.972656 138.199219 126.269531 142.046875 126.242188 C 134.085938 129.039062 125.207031 131.042969 121.832031 139.382812 C 120.890625 141.722656 120.328125 144.238281 119.828125 146.738281 C 119.789062 146.75 119.75 146.75 119.722656 146.765625 C 113.832031 149.386719 107.710938 152.089844 101.105469 151.566406 C 96.050781 151.164062 90.792969 148.175781 89.78125 142.851562 C 88.828125 137.808594 92.097656 133.046875 95.429688 129.628906 C 99.480469 125.460938 104.65625 122.273438 109.96875 119.945312 C 116.734375 116.972656 123.945312 116.140625 131.273438 116.558594 C 131.488281 116.570312 131.488281 116.289062 131.316406 116.222656 C 124.65625 113.558594 116.804688 114.582031 110.171875 116.8125 C 103.769531 118.964844 97.636719 122.609375 92.890625 127.464844 C 88.949219 131.488281 85.722656 137 86.648438 142.824219 C 87.523438 148.339844 92.097656 152.507812 97.355469 153.933594 C 104.765625 155.9375 112.335938 153.328125 119.117188 150.261719 C 119.101562 150.316406 119.089844 150.382812 119.074219 150.4375 C 118.242188 154.230469 117.394531 158.035156 116.5625 161.828125 C 115.136719 168.257812 113.9375 174.820312 112.015625 181.128906 C 111.421875 183.078125 110.710938 184.976562 109.929688 186.859375 C 103.085938 183.589844 96.226562 180.335938 89.367188 177.066406 C 82.425781 173.773438 75.457031 170.597656 68.289062 167.867188 C 69.394531 167.679688 70.308594 166.859375 70.226562 165.378906 C 69.78125 157.269531 69.273438 149.117188 68.558594 141.023438 C 67.832031 132.871094 67.535156 124.707031 66.90625 116.558594 C 66.851562 115.871094 65.9375 115.898438 65.855469 116.558594 C 64.914062 124.667969 64.632812 132.871094 64.308594 141.023438 C 63.988281 149.105469 64.269531 157.324219 64.953125 165.378906 C 65.050781 166.429688 65.613281 167.15625 66.367188 167.558594 C 76.84375 174.996094 88.289062 181.128906 99.75 187.019531 C 99.613281 187.179688 99.519531 187.371094 99.480469 187.625 C 98.753906 193.058594 98.550781 198.585938 98.296875 204.074219 C 98.039062 209.453125 98.066406 214.820312 98.417969 220.199219 C 99.101562 231.039062 101.296875 241.570312 103.59375 252.15625 C 105.558594 261.222656 107.160156 270.367188 106.175781 279.578125 C 104.65625 278.570312 103.136719 277.5625 101.617188 276.554688 C 98.335938 274.359375 95.054688 272.167969 91.773438 269.976562 C 90.105469 268.847656 88.410156 267.757812 86.714844 266.679688 C 85.734375 266.050781 84.726562 265.375 83.648438 264.972656 C 84.132812 262.5 84.066406 259.835938 84.1875 257.347656 C 84.335938 254.535156 84.441406 251.738281 84.46875 248.929688 C 84.523438 243.320312 84.578125 237.699219 84.484375 232.074219 C 84.28125 220.738281 83.878906 209.371094 82.855469 198.089844 C 82.574219 194.953125 82.238281 191.835938 81.886719 188.714844 C 81.566406 185.808594 81.121094 182.488281 79.964844 179.8125 C 79.613281 178.992188 78.324219 179.273438 78.121094 180.054688 C 77.824219 181.210938 77.839844 182.367188 77.773438 183.550781 C 77.691406 185.054688 77.515625 186.5625 77.542969 188.070312 C 77.597656 190.867188 77.679688 193.675781 77.773438 196.476562 C 77.945312 202.082031 78.148438 207.691406 78.363281 213.300781 C 78.765625 224.410156 79.105469 235.546875 79.265625 246.667969 C 79.320312 249.800781 79.359375 252.9375 79.480469 256.070312 C 79.601562 259.203125 79.359375 262.550781 79.976562 265.632812 C 80.21875 266.800781 81.484375 267.164062 82.453125 266.800781 C 82.949219 267.449219 83.570312 268.027344 84.214844 268.605469 C 85.558594 269.828125 86.972656 271.011719 88.398438 272.140625 C 91.277344 274.414062 94.152344 276.675781 97.113281 278.839844 C 99.84375 280.832031 102.613281 282.753906 105.410156 284.648438 C 105.089844 286.558594 104.898438 288.496094 105.289062 290.421875 C 105.71875 292.53125 107.066406 294.238281 108.707031 295.558594 C 112.472656 298.582031 117.542969 300.144531 121.898438 302.066406 C 124.441406 303.183594 126.996094 304.636719 129.847656 304.664062 C 131.8125 304.675781 133.277344 304.003906 134.410156 302.886719 C 140.367188 306.382812 146.378906 309.800781 152.484375 313.027344 C 156.0625 314.925781 159.652344 316.78125 163.269531 318.597656 C 167.050781 320.492188 170.816406 322.511719 174.742188 324.085938 C 175.753906 324.488281 176.597656 324.003906 177.058594 323.25 C 180.6875 323.074219 184.332031 321.878906 187.804688 320.992188 C 192.066406 319.902344 196.316406 318.746094 200.566406 317.589844 C 209.160156 315.246094 217.714844 312.746094 226.269531 310.269531 C 230.453125 309.0625 234.632812 307.851562 238.832031 306.640625 C 244.585938 307.648438 250.355469 308.160156 256.179688 306.882812 C 262.246094 305.550781 270.492188 303.074219 273.261719 296.902344 C 273.289062 296.835938 273.316406 296.753906 273.34375 296.675781 C 274.863281 296.230469 276.382812 295.800781 277.914062 295.355469 C 282.621094 293.996094 287.34375 292.640625 292.050781 291.265625 C 294.457031 290.566406 296.851562 289.867188 299.257812 289.167969 C 301.074219 288.644531 302.929688 288.160156 304.691406 287.472656 C 306.132812 287.675781 307.773438 286.84375 307.828125 284.960938 C 308.78125 250.207031 309.683594 215.464844 308.941406 180.710938 C 311.257812 180.199219 313.570312 179.675781 315.855469 179.058594 C 316.488281 178.882812 316.378906 177.847656 315.695312 177.886719 C 306.039062 178.640625 296.433594 180.605469 286.898438 182.21875 C 281.34375 183.160156 275.832031 184.261719 270.316406 185.417969 C 269.214844 182.566406 267.882812 179.796875 266.535156 177.054688 C 261.976562 167.734375 258.425781 158.199219 257.621094 147.761719 C 257.285156 143.363281 257.269531 139.003906 256.085938 134.753906 C 261.34375 133.394531 266.617188 132.066406 271.902344 130.761719 C 272.347656 131.003906 272.789062 131.246094 273.25 131.460938 C 274.875 132.238281 276.460938 132.992188 278.292969 133.167969 C 278.976562 133.234375 279.675781 133.222656 280.375 133.152344 C 284.261719 133.542969 288.21875 133.300781 291.796875 131.675781 C 294.886719 130.277344 297.335938 127.640625 297.589844 124.453125 C 299.070312 124.074219 300.5625 123.6875 302.03125 123.28125 C 304.746094 122.542969 307.503906 121.9375 310.234375 121.292969 C 312.65625 120.714844 315.035156 119.917969 317.441406 119.273438 C 316.984375 124.035156 317.09375 128.878906 316.933594 133.664062 C 316.769531 138.492188 316.742188 143.320312 316.609375 148.152344 C 316.488281 152.898438 316.300781 157.644531 316.03125 162.378906 C 315.898438 164.761719 315.707031 167.128906 315.546875 169.496094 C 315.386719 171.808594 314.835938 174.792969 315.722656 177 C 316.191406 178.171875 317.632812 178.453125 318.371094 177.347656 C 319.703125 175.386719 319.714844 172.398438 319.945312 170.101562 C 320.1875 167.734375 320.320312 165.351562 320.46875 162.984375 C 320.765625 158.050781 320.898438 153.113281 320.859375 148.164062 C 320.847656 143.1875 320.65625 138.210938 320.09375 133.328125 Z M 77.730469 111.394531 C 77.328125 112.46875 77.019531 113.585938 76.84375 114.726562 C 76.832031 114.824219 76.832031 114.929688 76.816406 115.023438 C 74.382812 114.070312 71.921875 113.140625 69.394531 112.535156 C 72.175781 112.226562 74.960938 111.835938 77.730469 111.394531 Z M 213.277344 97.769531 C 214.945312 97.875 216.613281 97.675781 218.253906 97.445312 C 221.519531 96.976562 224.683594 95.992188 227.75 94.808594 C 233.882812 92.429688 239.503906 89 245.394531 86.109375 C 256.625 80.605469 270.773438 77.367188 281.238281 86.230469 C 285.582031 89.902344 288.097656 94.742188 290.355469 99.785156 C 286.578125 97.78125 282.152344 96.734375 278.171875 97.121094 C 277.6875 97.175781 277.484375 97.929688 278.050781 98.039062 C 281.074219 98.667969 284.035156 99.261719 286.84375 100.605469 C 289.414062 101.832031 291.742188 103.484375 293.679688 105.582031 C 297.308594 109.511719 298.222656 114.890625 296.382812 119.691406 C 294.269531 116.058594 290.101562 114.003906 286.171875 112.765625 C 280.859375 111.097656 275.15625 110.398438 269.617188 110.195312 C 263.941406 109.992188 258.226562 110.519531 252.65625 111.648438 C 248.957031 112.402344 245.449219 113.761719 241.789062 114.632812 C 235.804688 116.058594 229.671875 117.054688 223.578125 117.96875 C 219.800781 118.535156 215.980469 118.910156 212.160156 119.019531 C 210.425781 119.074219 207.464844 119.410156 205.757812 118.496094 C 206.253906 115.980469 206.253906 113.476562 205.703125 111.109375 C 214.015625 110.761719 221.710938 107.667969 229.320312 104.585938 C 237.136719 101.425781 245.136719 98.011719 253.734375 98.304688 C 254.3125 98.320312 254.296875 97.460938 253.734375 97.40625 C 245.488281 96.625 237.351562 98.574219 229.644531 101.359375 C 222.179688 104.0625 214.714844 106.902344 206.726562 107.359375 C 207.949219 103.996094 209.1875 100.632812 210.558594 97.351562 C 211.449219 97.539062 212.347656 97.714844 213.277344 97.769531 Z M 200.445312 203.46875 C 190.492188 206.523438 180.609375 209.75 170.761719 213.140625 C 170.898438 212.949219 171.019531 212.734375 171.085938 212.507812 C 172.148438 209.035156 171.785156 205.015625 171.839844 201.410156 C 171.890625 197.632812 171.917969 193.851562 171.8125 190.085938 C 171.71875 186.414062 171.570312 182.730469 171.273438 179.070312 C 170.964844 175.292969 170.144531 171.554688 169.996094 167.773438 C 169.980469 167.503906 169.566406 167.503906 169.578125 167.773438 C 169.59375 171.445312 168.878906 175.117188 168.542969 178.773438 C 168.195312 182.542969 167.964844 186.320312 167.667969 190.085938 C 167.386719 193.757812 167.144531 197.441406 166.835938 201.113281 C 166.527344 204.855469 165.730469 208.78125 166.3125 212.507812 C 166.335938 212.707031 166.40625 212.898438 166.472656 213.070312 C 164.507812 212.15625 162.503906 211.324219 160.539062 210.433594 C 157.085938 208.875 153.628906 207.316406 150.171875 205.726562 C 147.859375 204.679688 145.570312 203.589844 143.273438 202.511719 C 145.179688 202.460938 147.089844 202.40625 149 202.273438 C 151.410156 202.109375 154.03125 201.492188 155.859375 199.808594 C 157.191406 198.601562 157.984375 196.234375 158.199219 194.496094 C 158.375 193.167969 158.308594 191.847656 158.121094 190.53125 C 158.632812 186.28125 159.089844 182.015625 159.398438 177.738281 C 159.816406 172.0625 159.707031 166.28125 160.515625 160.644531 C 160.714844 159.21875 161.039062 157.820312 161.46875 156.460938 C 163.945312 157.523438 166.433594 158.574219 168.960938 159.527344 C 169.308594 159.664062 169.644531 159.691406 169.957031 159.648438 C 170.277344 159.691406 170.640625 159.648438 171.03125 159.527344 C 184.738281 155.011719 198.523438 150.746094 212.375 146.699219 C 214.296875 149.65625 214.703125 153.34375 214.78125 156.8125 C 214.890625 160.902344 214.648438 164.988281 214.929688 169.078125 C 215.199219 172.882812 215.832031 177.1875 218.226562 180.308594 C 220.648438 183.46875 223.484375 186.320312 225.90625 189.507812 C 227.289062 191.324219 228.488281 193.191406 229.535156 195.15625 C 219.785156 197.753906 210.089844 200.507812 200.445312 203.46875 Z M 201.992188 144.652344 C 191.207031 147.800781 180.445312 151.109375 169.753906 154.550781 C 167.722656 153.558594 165.679688 152.617188 163.605469 151.699219 C 164.414062 150.355469 165.371094 149.105469 166.527344 147.976562 C 169.550781 145.015625 173.222656 142.851562 176.789062 140.632812 C 178.964844 139.273438 181.144531 137.886719 183.070312 136.167969 C 184.804688 134.621094 186.175781 132.964844 187.519531 131.125 C 187.65625 131.082031 187.777344 131.015625 187.898438 130.949219 C 188.167969 132.253906 188.703125 133.476562 189.617188 134.59375 C 191.042969 136.328125 193.019531 137.164062 195.105469 137.847656 C 197.78125 138.722656 200.445312 139.503906 203.082031 140.523438 C 204.832031 141.210938 206.617188 141.910156 208.234375 142.863281 C 206.132812 143.457031 204.0625 144.046875 201.992188 144.652344 Z M 186.605469 122.839844 C 185.503906 124.707031 185.234375 126.65625 185.90625 128.609375 C 185.582031 128.542969 185.261719 128.460938 184.953125 128.339844 C 184.050781 127.988281 183.242188 127.4375 182.570312 126.753906 C 181.292969 125.449219 180.59375 123.539062 180.984375 121.707031 C 181.84375 117.714844 185.824219 115.738281 189.59375 115.210938 C 189.539062 115.28125 189.566406 115.414062 189.6875 115.414062 C 189.820312 115.414062 189.832031 115.253906 189.738281 115.199219 C 189.929688 115.171875 190.101562 115.144531 190.292969 115.132812 C 190.492188 115.117188 190.574219 114.796875 190.34375 114.753906 C 186.660156 114.148438 182.34375 115.46875 179.960938 118.453125 C 177.730469 121.238281 178.171875 125.191406 180.257812 127.882812 C 176.382812 125.703125 172.1875 122.636719 170.640625 118.347656 C 169.230469 114.417969 170.492188 110.464844 173.289062 107.53125 C 179.707031 100.835938 190.722656 100.984375 198.171875 105.863281 C 202.152344 108.472656 205.421875 113.140625 205.019531 118.035156 C 203.699219 116.636719 201.253906 116.289062 199.492188 116.328125 C 196.949219 116.382812 194.324219 117.203125 192.027344 118.253906 C 189.847656 119.246094 187.84375 120.753906 186.605469 122.839844 Z M 179.585938 75.914062 C 180.285156 73.855469 179.988281 71.835938 179.734375 69.726562 C 179.519531 67.871094 179.425781 65.703125 180.957031 64.347656 C 183.808594 61.816406 188.71875 62.828125 191.972656 63.742188 C 196.074219 64.898438 200.070312 66.523438 204.359375 66.847656 C 205.058594 66.902344 205.785156 66.914062 206.511719 66.902344 C 203.59375 69.390625 201.304688 72.886719 199.773438 76.304688 C 199.636719 76.613281 200.027344 77.015625 200.285156 76.691406 C 201.667969 74.972656 202.800781 73.089844 204.371094 71.5 C 205.917969 69.941406 207.761719 68.554688 209.765625 67.640625 C 212.121094 66.578125 214.675781 66.066406 217.191406 65.542969 C 219.933594 64.964844 222.675781 64.398438 225.433594 63.863281 C 228.113281 63.335938 230.800781 62.828125 233.492188 62.316406 C 236.007812 61.832031 238.980469 61.132812 241.304688 62.597656 C 244.640625 64.695312 244.035156 67.976562 242.597656 70.964844 C 242.125 68.769531 240.445312 66.996094 238.265625 66.378906 C 232.617188 64.777344 226.820312 69.902344 222.988281 73.382812 C 218.574219 77.40625 214.878906 82.195312 211.929688 87.371094 C 208.433594 93.519531 205.867188 100.175781 204.050781 107.007812 C 203.59375 106.242188 203.09375 105.5 202.476562 104.800781 C 200.820312 102.917969 198.777344 101.492188 196.53125 100.429688 C 199.839844 94.394531 203.40625 88.5 207.558594 82.988281 C 207.816406 82.652344 207.292969 82.328125 207.023438 82.570312 C 201.535156 87.195312 196.71875 92.792969 193.519531 99.246094 C 191.488281 98.628906 189.363281 98.28125 187.265625 98.171875 C 185.582031 98.089844 183.875 98.199219 182.195312 98.46875 C 184.15625 95.402344 183.648438 90.503906 182.949219 87.34375 C 182.128906 83.59375 180.539062 79.949219 178.457031 76.71875 C 178.914062 76.734375 179.382812 76.492188 179.585938 75.914062 Z M 169.472656 104.265625 C 167.183594 103.660156 164.722656 103.820312 162.355469 103.644531 C 160.324219 103.484375 158.308594 103.175781 156.304688 102.796875 C 155.683594 102.179688 154.972656 101.640625 154.300781 101.105469 C 153.265625 100.269531 152.203125 99.488281 151.058594 98.804688 C 149.984375 98.160156 148.878906 97.59375 147.722656 97.082031 C 146.582031 96.570312 145.503906 95.953125 144.347656 95.46875 C 144.238281 95.429688 144.160156 95.589844 144.238281 95.65625 C 145.140625 96.476562 146.109375 97.191406 146.957031 98.078125 C 147.816406 98.980469 148.691406 99.851562 149.578125 100.726562 C 149.835938 100.984375 150.105469 101.210938 150.371094 101.46875 C 147.535156 100.726562 144.722656 99.867188 141.925781 98.964844 C 141.550781 98.84375 141.171875 98.722656 140.808594 98.601562 C 139.371094 95.992188 136.800781 94.246094 134.125 93.007812 C 130.425781 91.285156 126.5 90.210938 122.667969 88.839844 C 120.570312 88.097656 118.539062 87.25 116.613281 86.121094 C 115.699219 85.582031 114.339844 84.828125 113.277344 83.914062 C 113.210938 83.808594 113.132812 83.714844 113.023438 83.632812 C 111.152344 82.300781 113.132812 80.632812 114.503906 79.988281 C 116.332031 79.128906 118.46875 78.792969 120.472656 78.671875 C 124.871094 78.386719 129.042969 79.8125 133.386719 79.90625 C 133.601562 79.90625 133.640625 79.636719 133.492188 79.53125 C 132.296875 78.683594 131.179688 78.023438 129.808594 77.472656 C 128.492188 76.949219 127.066406 76.585938 125.667969 76.355469 C 124.710938 76.195312 123.742188 76.113281 122.789062 76.046875 C 123.675781 75.84375 124.5625 75.65625 125.449219 75.46875 C 128.8125 74.757812 132.175781 73.960938 135.496094 73.0625 C 138.226562 72.320312 141.898438 70.800781 144.710938 71.863281 C 144.886719 71.917969 145.046875 71.878906 145.179688 71.785156 C 145.25 71.8125 145.316406 71.835938 145.398438 71.863281 C 145.90625 72 146.351562 71.433594 146.082031 70.964844 C 145.894531 70.628906 149.941406 69.832031 150.25 69.753906 C 151.273438 69.484375 152.242188 69.066406 153.128906 68.476562 C 155.121094 67.171875 156.679688 65.652344 159.222656 65.609375 C 162.074219 65.570312 164.628906 67.277344 166.863281 68.839844 C 168.90625 70.277344 170.789062 71.917969 172.523438 73.734375 C 175.671875 77.042969 178.132812 81.011719 179.597656 85.328125 C 180.324219 87.453125 180.957031 89.683594 181.117188 91.945312 C 181.210938 93.210938 181.132812 94.472656 180.929688 95.722656 C 180.742188 96.828125 180.3125 97.863281 180.027344 98.9375 C 176.882812 99.757812 173.921875 101.226562 171.515625 103.457031 C 171.042969 103.902344 170.613281 104.359375 170.210938 104.84375 C 170.023438 104.574219 169.78125 104.359375 169.472656 104.265625 Z M 114.003906 186.738281 C 116.5625 181.128906 118.269531 175.171875 119.640625 169.1875 C 121.402344 161.4375 123.125 153.691406 124.886719 145.945312 C 125.546875 143.027344 126.203125 139.503906 128.261719 137.203125 C 129.847656 135.414062 132.269531 134.335938 134.476562 133.53125 C 140.109375 131.472656 146.648438 130.652344 151.085938 126.269531 C 151.421875 125.945312 151.582031 125.570312 151.625 125.191406 C 155.578125 124.304688 159.546875 122.878906 163.097656 120.808594 C 161.914062 122.3125 160.769531 123.859375 159.519531 125.3125 C 158.292969 126.738281 156.921875 127.949219 155.324219 128.945312 C 154.5 129.441406 153.679688 129.898438 152.820312 130.328125 C 151.972656 130.761719 151.085938 131.296875 150.199219 131.621094 C 149.835938 131.753906 149.902344 132.238281 150.292969 132.28125 C 150.832031 132.332031 151.300781 132.480469 151.851562 132.453125 C 152.351562 132.429688 152.859375 132.375 153.359375 132.292969 C 154.339844 132.132812 155.335938 131.769531 156.238281 131.351562 C 158.148438 130.492188 159.894531 129.226562 161.507812 127.910156 C 163.242188 126.496094 164.710938 124.882812 165.921875 123 C 166.550781 122.019531 167.210938 121.023438 167.65625 119.945312 C 167.964844 119.195312 168.355469 118.441406 168.636719 117.660156 C 171.003906 122.625 175.847656 126.457031 180.511719 129.050781 C 180.796875 129.214844 181.066406 129.050781 181.160156 128.824219 C 181.265625 128.929688 181.375 129.039062 181.496094 129.132812 C 182.25 129.765625 183.09375 130.261719 184.011719 130.625 C 180.996094 132.574219 177.742188 134.257812 174.714844 136.113281 C 170.84375 138.492188 166.902344 140.914062 163.582031 144.046875 C 159.839844 147.570312 157.109375 151.769531 155.925781 156.796875 C 154.582031 162.515625 154.730469 168.648438 154.890625 174.472656 C 155.09375 181.53125 155.550781 188.527344 156.128906 195.546875 C 155.484375 197.1875 154.125 198.277344 152.148438 198.453125 C 149.632812 198.679688 147.023438 198.613281 144.496094 198.707031 C 141.589844 198.828125 138.683594 198.910156 135.78125 198.976562 C 130.183594 199.097656 124.589844 199.125 118.996094 199.246094 C 116.199219 199.300781 113.398438 199.445312 110.601562 199.554688 C 108.277344 199.636719 105.492188 199.3125 103.179688 199.90625 C 105.613281 198.464844 107.683594 196.179688 109.484375 194.027344 C 111.34375 191.847656 112.808594 189.359375 114.003906 186.738281 Z M 121.820312 297.789062 C 119.695312 296.808594 117.570312 295.855469 115.457031 294.859375 C 113.789062 294.066406 111.773438 293.191406 110.628906 291.671875 C 109.5 290.164062 109.484375 288.1875 109.726562 286.398438 C 110.066406 283.898438 110.695312 281.460938 110.964844 278.949219 C 112.015625 269.316406 109.996094 259.648438 107.871094 250.300781 C 105.679688 240.628906 103.742188 230.988281 102.628906 221.113281 C 102.007812 215.652344 101.589844 210.152344 101.363281 204.664062 C 101.132812 199.085938 101.46875 193.597656 101.792969 188.027344 C 102.855469 188.566406 103.90625 189.117188 104.96875 189.65625 C 105.976562 190.167969 106.984375 190.664062 107.992188 191.164062 C 107.375 192.441406 106.730469 193.757812 105.933594 194.929688 C 104.886719 196.449219 103.5 197.753906 102.316406 199.164062 C 102.023438 199.515625 102.222656 200.011719 102.574219 200.121094 C 102.546875 200.132812 102.507812 200.132812 102.464844 200.148438 C 102.277344 200.214844 102.183594 200.523438 102.398438 200.617188 C 103.648438 201.195312 105.035156 201.25 106.394531 201.398438 C 107.898438 201.558594 109.40625 201.707031 110.910156 201.855469 C 114.140625 202.164062 117.355469 202.433594 120.59375 202.582031 C 124.363281 202.753906 128.140625 202.78125 131.921875 202.742188 C 132.96875 203.226562 134.003906 203.710938 135.054688 204.207031 C 135.054688 204.207031 135.039062 204.222656 135.039062 204.222656 C 133.777344 207.019531 133.425781 210.058594 133.023438 213.070312 C 132.59375 216.300781 132.203125 219.539062 131.988281 222.796875 C 131.570312 229.371094 131.421875 235.976562 131.757812 242.554688 C 132.09375 249.144531 132.820312 255.691406 133.75 262.230469 C 134.664062 268.644531 135.617188 275.101562 135.566406 281.597656 C 135.539062 284.769531 135.296875 287.933594 134.796875 291.050781 C 134.261719 294.429688 133.613281 297.761719 132.109375 300.855469 C 132.082031 300.910156 132.082031 300.964844 132.066406 301.03125 C 128.867188 301.757812 124.484375 299.015625 121.820312 297.789062 Z M 157.257812 310.273438 C 150.84375 306.855469 144.496094 303.332031 138.199219 299.6875 C 137.71875 299.402344 137.246094 299.121094 136.773438 298.839844 C 136.800781 298.757812 136.828125 298.691406 136.855469 298.625 C 136.894531 298.503906 136.910156 298.410156 136.910156 298.300781 C 137.554688 297.023438 138.132812 295.71875 138.5625 294.402344 C 139.464844 291.601562 139.964844 288.726562 140.257812 285.808594 C 140.917969 279.433594 140.109375 272.933594 139.25 266.613281 C 137.433594 253.300781 135.792969 240.078125 135.660156 226.613281 C 135.617188 222.796875 135.644531 218.976562 135.726562 215.15625 C 135.808594 211.605469 136.222656 208 135.644531 204.476562 C 138.925781 206.011719 142.210938 207.570312 145.503906 209.078125 C 149.390625 210.867188 153.292969 212.640625 157.191406 214.402344 C 161.09375 216.164062 164.964844 218.167969 169.066406 219.367188 C 170.089844 219.660156 170.921875 219.230469 171.394531 218.53125 C 172.28125 218.222656 173.183594 217.914062 174.085938 217.605469 C 172.929688 241.019531 172.660156 264.488281 172.980469 287.90625 C 173.128906 298.167969 173.464844 308.429688 173.882812 318.691406 C 171.460938 317.453125 168.988281 316.324219 166.566406 315.101562 C 163.445312 313.527344 160.339844 311.914062 157.257812 310.273438 Z M 202.179688 312.113281 C 197.488281 313.566406 192.792969 314.992188 188.140625 316.511719 C 185.773438 317.292969 183.417969 318.085938 181.066406 318.90625 C 180.554688 319.082031 180.042969 319.269531 179.546875 319.457031 C 178.792969 300.5625 178.429688 281.636719 178.171875 262.726562 C 177.957031 247.191406 178.144531 231.671875 178.363281 216.136719 C 194.097656 210.746094 209.96875 205.742188 225.972656 201.210938 C 225.664062 203.84375 225.648438 206.574219 225.554688 209.183594 C 225.433594 212.800781 225.433594 216.394531 225.570312 220.011719 C 225.824219 227.21875 226.496094 234.414062 227.304688 241.585938 C 228.113281 248.792969 229.1875 255.988281 230.371094 263.15625 C 231.515625 270.109375 233.019531 276.996094 234.191406 283.9375 C 234.808594 287.570312 235.226562 291.308594 235.039062 294.992188 C 234.902344 297.710938 234.285156 300.292969 233.476562 302.832031 C 223.039062 305.859375 212.578125 308.898438 202.179688 312.113281 Z M 266.066406 297.253906 C 263.699219 299.054688 260.6875 300.292969 257.902344 301.273438 C 254.511719 302.484375 250.960938 303.332031 247.4375 304.070312 C 244.195312 304.742188 240.726562 305.054688 237.390625 304.769531 C 240.148438 299.941406 240.78125 293.78125 240.390625 288.375 C 239.878906 281.167969 238.039062 274.078125 236.734375 266.992188 C 234.054688 252.453125 232.375 237.820312 230.476562 223.171875 C 229.96875 219.203125 229.523438 215.222656 228.933594 211.253906 C 228.433594 207.839844 228.097656 204.234375 227.332031 200.820312 C 228.742188 200.429688 230.167969 200.039062 231.582031 199.648438 C 231.808594 200.226562 232.050781 200.804688 232.265625 201.410156 C 233.476562 204.878906 234.339844 208.484375 235.710938 211.886719 C 235.535156 212.222656 235.574219 212.640625 235.980469 212.964844 C 236.085938 213.042969 236.179688 213.125 236.273438 213.21875 C 236.503906 213.730469 236.746094 214.226562 237.015625 214.710938 C 237.390625 215.410156 238.226562 215.625 238.953125 215.453125 C 243.296875 219.164062 247.519531 222.984375 252.386719 226.0625 C 254.890625 227.652344 257.429688 229.144531 260.015625 230.582031 C 259.746094 231.242188 259.652344 231.980469 259.675781 232.882812 C 259.71875 234.65625 259.894531 236.433594 260.027344 238.195312 C 260.308594 241.734375 260.660156 245.269531 261.078125 248.808594 C 261.910156 255.882812 263.011719 262.941406 264.359375 269.9375 C 265.03125 273.433594 265.785156 276.902344 266.589844 280.359375 C 267.316406 283.464844 268.339844 286.628906 268.703125 289.800781 C 269.039062 292.746094 268.5 295.382812 266.066406 297.253906 Z M 283.5625 186.402344 C 288.890625 185.125 294.230469 183.914062 299.570312 182.6875 C 301.261719 182.300781 302.957031 181.9375 304.667969 181.574219 C 304.640625 186.238281 304.597656 190.894531 304.53125 195.558594 C 304.25 214.550781 303.832031 233.542969 303.375 252.519531 C 303.132812 262.59375 302.851562 272.652344 302.582031 282.726562 C 299.03125 283.414062 295.492188 284.757812 292.078125 285.753906 C 287.855469 286.976562 283.617188 288.214844 279.394531 289.453125 C 277.671875 289.949219 275.953125 290.460938 274.230469 290.957031 C 274.175781 289.625 273.972656 288.28125 273.691406 286.964844 C 272.9375 283.359375 271.847656 279.808594 271.027344 276.21875 C 269.308594 268.78125 267.921875 261.273438 266.859375 253.714844 C 266.253906 249.386719 265.769531 245.042969 265.378906 240.695312 C 265.191406 238.613281 265.03125 236.527344 264.894531 234.441406 C 264.867188 234 264.84375 233.570312 264.800781 233.152344 C 265.164062 233.339844 265.527344 233.542969 265.90625 233.730469 C 267.597656 234.605469 269.535156 235.425781 270.976562 236.703125 C 271.917969 237.535156 273.757812 237.039062 273.664062 235.585938 C 273.515625 233.136719 272.789062 230.746094 272.574219 228.296875 C 272.359375 225.808594 272.347656 223.320312 272.441406 220.832031 C 272.628906 215.882812 273.085938 210.933594 273.25 205.984375 C 273.410156 200.980469 273.234375 195.910156 272.089844 191.015625 C 271.957031 190.4375 271.808594 189.871094 271.648438 189.304688 C 275.601562 188.335938 279.582031 187.355469 283.5625 186.402344 Z M 254.21875 146.820312 C 254 157.066406 256.464844 166.75 260.808594 175.976562 C 262.90625 180.429688 265.191406 184.800781 266.710938 189.496094 C 268.203125 194.09375 268.675781 198.84375 268.6875 203.65625 C 268.703125 209.199219 268.152344 214.710938 268.203125 220.253906 C 268.230469 223.039062 268.367188 225.820312 268.730469 228.578125 C 268.902344 229.921875 269.078125 231.347656 269.402344 232.734375 C 267.34375 231.605469 265.378906 230.097656 263.550781 228.875 C 263.226562 228.660156 262.90625 228.429688 262.582031 228.214844 C 262.542969 228.175781 262.488281 228.148438 262.433594 228.121094 C 259.90625 226.425781 257.378906 224.71875 254.875 222.984375 C 252.09375 221.0625 249.253906 219.230469 246.417969 217.375 C 244.992188 216.449219 243.429688 215.816406 242.019531 214.886719 C 241.386719 214.46875 240.765625 214 240.164062 213.542969 C 239.074219 205.714844 234.753906 197.980469 230.101562 191.699219 C 227.816406 188.621094 224.871094 185.890625 222.972656 182.542969 C 221.023438 179.085938 219.933594 174.914062 219.261719 171.015625 C 217.917969 163.253906 219.316406 155.105469 216.894531 147.519531 C 215.777344 144.007812 213.667969 141.128906 210.53125 139.191406 C 207.453125 137.285156 204.007812 136.410156 200.527344 135.589844 C 198.066406 135.011719 195.457031 134.902344 193.046875 134.121094 C 189.765625 133.074219 188.851562 129.925781 188.125 126.832031 C 188.125 126.820312 188.113281 126.820312 188.113281 126.804688 C 188.167969 125.972656 188.421875 125.207031 188.8125 124.480469 C 190.101562 126.226562 191.582031 127.855469 193.289062 129.1875 C 194.300781 129.980469 195.347656 130.8125 196.503906 131.378906 C 197.109375 131.675781 197.730469 131.945312 198.335938 132.238281 C 198.914062 132.523438 199.449219 132.925781 200.082031 133.101562 C 200.390625 133.179688 200.605469 132.804688 200.390625 132.574219 C 199.976562 132.132812 199.421875 131.835938 198.953125 131.445312 C 198.46875 131.027344 198.039062 130.570312 197.609375 130.101562 C 196.789062 129.1875 195.859375 128.378906 195.027344 127.464844 C 193.425781 125.714844 192.011719 124.074219 190.734375 122.152344 C 191.554688 121.425781 192.484375 120.820312 193.398438 120.335938 C 195.171875 119.410156 197.125 118.75 199.101562 118.414062 C 201.039062 118.078125 202.664062 118.320312 204.304688 119.273438 C 204.359375 119.421875 204.441406 119.570312 204.589844 119.679688 C 205.960938 120.671875 207.777344 120.808594 209.402344 120.929688 C 212.011719 121.128906 214.636719 121.0625 217.257812 120.929688 C 224.320312 126.414062 233.691406 125.378906 241.84375 127.839844 C 243.738281 128.421875 245.542969 129.066406 247.289062 130.035156 C 248.929688 130.949219 250.167969 132.105469 251.566406 133.316406 C 252.238281 133.90625 252.75 134.566406 253.15625 135.277344 C 253.167969 135.332031 253.195312 135.375 253.207031 135.425781 C 253.222656 135.425781 253.222656 135.425781 253.234375 135.425781 C 255.011719 138.75 254.285156 143.160156 254.21875 146.820312 Z M 254.484375 130.640625 C 254.070312 129.914062 253.585938 129.226562 252.925781 128.582031 C 251.808594 127.476562 250.503906 126.550781 249.132812 125.8125 C 249.605469 125.757812 250.046875 125.714844 250.449219 125.675781 C 252.453125 125.472656 254.484375 125.207031 256.503906 125.234375 C 258.492188 125.257812 260.417969 125.675781 262.339844 126.148438 C 263.902344 126.535156 265.40625 127.0625 266.832031 127.773438 C 264.585938 128.285156 262.339844 128.796875 260.09375 129.308594 C 258.226562 129.75 256.355469 130.195312 254.484375 130.640625 Z M 293.195312 127.574219 C 289.804688 130.882812 284.734375 131.285156 279.984375 131.433594 C 279.152344 131.296875 278.320312 131.082031 277.472656 130.828125 C 275.507812 130.261719 273.679688 129.65625 271.847656 128.714844 C 270.179688 127.867188 268.472656 126.980469 266.925781 125.933594 C 265.328125 124.855469 263.820312 123.644531 262.003906 122.933594 C 258.589844 121.574219 254.96875 121.925781 251.445312 122.648438 C 249.578125 123.039062 247.707031 123.445312 245.8125 123.6875 C 245.113281 123.78125 244.386719 123.792969 243.671875 123.792969 C 236.261719 121.992188 228.3125 123.011719 221.035156 120.699219 C 226.484375 120.335938 231.929688 119.796875 237.3125 118.910156 C 239.460938 118.5625 241.628906 118.199219 243.738281 117.632812 C 247.695312 116.570312 251.488281 115.210938 255.546875 114.5 C 260.859375 113.558594 266.292969 113.277344 271.675781 113.53125 C 276.878906 113.773438 282.285156 114.460938 287.207031 116.261719 C 291.433594 117.820312 297.980469 122.890625 293.195312 127.574219 Z M 303.992188 120.523438 C 302.3125 120.808594 300.632812 121.101562 298.9375 121.386719 C 300.175781 118.695312 300.550781 115.777344 300.160156 112.941406 C 302.230469 113.679688 304.304688 114.433594 306.359375 115.210938 C 308.351562 115.980469 310.355469 116.691406 312.332031 117.472656 C 313.609375 117.96875 314.941406 118.5625 316.3125 118.84375 C 312.183594 119.355469 308.097656 119.839844 303.992188 120.523438 Z M 248.015625 151.40625 C 248.097656 151.40625 248.097656 151.527344 248.015625 151.527344 C 247.9375 151.527344 247.9375 151.40625 248.015625 151.40625 Z M 248.015625 151.40625 " fill-opacity="1" fill-rule="nonzero"/></g></svg>