<svg width="308" height="247" viewBox="0 0 308 247" fill="none" xmlns="http://www.w3.org/2000/svg">
<g clip-path="url(#clip0_9_84)">
<path d="M86.6995 164.247C105.998 164.247 121.643 148.681 121.643 129.48C121.643 110.279 105.998 94.7128 86.6995 94.7128C67.4007 94.7128 51.756 110.279 51.756 129.48C51.756 148.681 67.4007 164.247 86.6995 164.247Z" fill="#E6E6E6"/>
<path d="M77.2585 180.249L85.8541 185.549V149.726L76.2194 143.786C75.4229 143.295 74.8408 142.524 74.5886 141.626C75.5091 141.451 76.462 141.626 77.2585 142.117L85.8541 147.417V133.526C85.8541 130.839 86.1854 128.162 86.8404 125.555C87.4955 128.162 87.8268 130.839 87.8268 133.526V156.199L100.508 148.38C101.52 147.756 102.692 147.434 103.883 147.454C103.37 148.524 102.559 149.424 101.547 150.049L87.8267 158.508V243.225H85.8541V187.858L76.2194 181.917C75.4229 181.426 74.8408 180.655 74.5886 179.757C75.509 179.583 76.4619 179.758 77.2585 180.249Z" fill="#CCCCCC"/>
<path d="M34.9435 167.199C54.2423 167.199 69.8871 151.633 69.8871 132.432C69.8871 113.23 54.2423 97.6647 34.9435 97.6647C15.6448 97.6647 0 113.23 0 132.432C0 151.633 15.6448 167.199 34.9435 167.199Z" fill="#E6E6E6"/>
<path d="M44.3846 183.201L35.7889 188.5V152.678L45.4236 146.738C46.2201 146.247 46.8022 145.476 47.0544 144.578C46.134 144.403 45.1811 144.578 44.3845 145.069L35.7889 150.369V136.478C35.7889 133.791 35.4577 131.113 34.8026 128.506C34.1475 131.113 33.8163 133.791 33.8163 136.478V159.151L21.1354 151.332C20.1228 150.708 18.9512 150.386 17.7602 150.406C18.2729 151.476 19.0838 152.376 20.0963 153.001L33.8163 161.459V243.412H35.7889V190.809L45.4236 184.869C46.2201 184.378 46.8022 183.607 47.0544 182.709C46.134 182.534 45.1811 182.71 44.3846 183.201Z" fill="#CCCCCC"/>
<path d="M60.327 119.72C93.5546 119.72 120.491 92.92 120.491 59.8601C120.491 26.8003 93.5546 0 60.327 0C27.0994 0 0.163116 26.8003 0.163116 59.8601C0.163116 92.92 27.0994 119.72 60.327 119.72Z" fill="#E6E6E6"/>
<path d="M76.5821 147.272L61.7826 156.396V94.7187L78.3711 84.4912C79.7425 83.6457 80.7447 82.3184 81.1789 80.7724C79.5942 80.4712 77.9536 80.7733 76.5821 81.6188L61.7826 90.7433V66.8265C61.7826 62.1997 61.2123 57.5904 60.0845 53.1017C58.9566 57.5904 58.3863 62.1997 58.3863 66.8265V105.863L36.5529 92.402C34.8095 91.3271 32.7924 90.7734 30.7417 90.8068C31.6244 92.6488 33.0205 94.1995 34.7639 95.2744L58.3863 109.839V243.544H61.7826V160.372L78.3711 150.144C79.7425 149.299 80.7447 147.971 81.1789 146.425C79.5942 146.124 77.9535 146.426 76.5821 147.272Z" fill="#CCCCCC"/>
<path d="M308 243.225H23.9952V243.941H308V243.225Z" fill="#3F3D56"/>
<path d="M234.858 107.997L220.762 116.094L228.9 130.118L242.996 122.021L234.858 107.997Z" fill="#FF6584"/>
<path d="M235.037 133.041L226.539 118.397L241.257 109.943L249.755 124.587L235.037 133.041ZM227.521 118.659L235.3 132.064L248.773 124.325L240.994 110.92L227.521 118.659Z" fill="#2F2E41"/>
<path d="M221.85 172.393C225.623 172.393 228.681 169.35 228.681 165.597C228.681 161.843 225.623 158.801 221.85 158.801C218.078 158.801 215.02 161.843 215.02 165.597C215.02 169.35 218.078 172.393 221.85 172.393Z" fill="#D0CDE1"/>
<path d="M226.883 172.75C225.461 172.75 224.071 172.331 222.889 171.545C221.706 170.759 220.785 169.641 220.241 168.334C219.696 167.027 219.554 165.589 219.831 164.201C220.109 162.813 220.794 161.539 221.799 160.538C222.805 159.538 224.086 158.856 225.481 158.58C226.875 158.304 228.321 158.446 229.635 158.988C230.949 159.529 232.072 160.446 232.862 161.622C233.652 162.799 234.073 164.182 234.073 165.597C234.073 167.494 233.316 169.314 231.967 170.655C230.619 171.997 228.79 172.75 226.883 172.75ZM226.883 159.158C225.603 159.158 224.352 159.536 223.288 160.243C222.224 160.951 221.395 161.956 220.905 163.133C220.415 164.309 220.287 165.604 220.537 166.853C220.786 168.102 221.403 169.249 222.308 170.149C223.213 171.05 224.366 171.663 225.621 171.911C226.876 172.16 228.177 172.032 229.36 171.545C230.542 171.058 231.553 170.232 232.264 169.174C232.975 168.115 233.354 166.87 233.354 165.597C233.354 163.889 232.673 162.252 231.459 161.044C230.245 159.837 228.6 159.158 226.883 159.158Z" fill="#2F2E41"/>
<path d="M264.941 244.852H198.793C197.982 244.852 197.206 244.531 196.633 243.961C196.06 243.391 195.738 242.618 195.737 241.812V180.648C195.738 179.842 196.06 179.069 196.633 178.499C197.206 177.929 197.982 177.609 198.793 177.608H264.941C265.751 177.609 266.527 177.929 267.1 178.499C267.673 179.069 267.995 179.842 267.996 180.648V241.812C267.995 242.618 267.673 243.391 267.1 243.961C266.527 244.531 265.751 244.852 264.941 244.852Z" fill="#FF9494"/>
<path d="M236.54 247H227.193C226.382 246.999 225.606 246.678 225.033 246.108C224.46 245.539 224.138 244.766 224.137 243.96V178.831C224.138 178.025 224.46 177.252 225.033 176.682C225.606 176.112 226.382 175.792 227.193 175.791H236.54C237.35 175.792 238.126 176.112 238.699 176.682C239.272 177.252 239.594 178.025 239.595 178.831V243.96C239.594 244.766 239.272 245.539 238.699 246.108C238.126 246.678 237.35 246.999 236.54 247Z" fill="#3F3D56"/>
<path d="M282.515 171.553C282.129 177.863 273.562 182.478 273.562 182.478C273.562 182.478 265.623 176.862 266.009 170.552C266.395 164.243 274.962 159.628 274.962 159.628C274.962 159.628 282.902 165.244 282.515 171.553Z" fill="#3F3D56"/>
<path d="M282.903 191.24C276.56 190.875 271.896 182.366 271.896 182.366C271.896 182.366 277.515 174.449 283.858 174.814C290.2 175.179 294.865 183.687 294.865 183.687C294.865 183.687 289.246 191.605 282.903 191.24Z" fill="#3F3D56"/>
<path opacity="0.1" d="M267.816 185.091V208.44L244.474 177.787H262.255L267.816 185.091Z" fill="black"/>
<path d="M287.633 225.06C287.161 225.061 286.694 224.953 286.271 224.744C285.848 224.535 285.479 224.232 285.194 223.857L236.563 159.996C236.32 159.677 236.143 159.315 236.042 158.929C235.94 158.542 235.916 158.14 235.971 157.744C236.026 157.349 236.159 156.968 236.361 156.623C236.564 156.279 236.833 155.977 237.153 155.736L244.317 150.336C244.636 150.095 245.001 149.919 245.389 149.818C245.777 149.717 246.182 149.693 246.579 149.748C246.977 149.802 247.36 149.934 247.706 150.136C248.052 150.338 248.355 150.605 248.597 150.924L297.229 214.785C297.471 215.103 297.648 215.465 297.749 215.852C297.851 216.238 297.875 216.64 297.82 217.036C297.765 217.431 297.633 217.812 297.43 218.157C297.227 218.501 296.958 218.803 296.638 219.044L289.475 224.444C288.945 224.844 288.298 225.061 287.633 225.06Z" fill="#FF9494"/>
<path d="M268.167 175.437L255.846 184.726L265.181 196.985L277.503 187.696L268.167 175.437Z" fill="#3F3D56"/>
<path d="M204.784 128.721L200.572 144.363L216.293 148.555L220.506 132.912L204.784 128.721Z" fill="#D0CDE1"/>
<path d="M209.624 150.893L193.208 146.517L197.607 130.183L214.022 134.56L209.624 150.893ZM194.088 146.011L209.115 150.017L213.142 135.066L198.115 131.059L194.088 146.011Z" fill="#2F2E41"/>
<path d="M140.474 188.857C140.906 188.445 141.242 187.944 141.458 187.39C141.675 186.835 141.766 186.239 141.726 185.645C141.686 185.052 141.516 184.474 141.227 183.952C140.939 183.431 140.539 182.979 140.055 182.628L133.453 129.68L124.924 132.204L134.132 183.731C133.594 184.578 133.386 185.592 133.549 186.581C133.712 187.57 134.233 188.465 135.015 189.097C135.797 189.729 136.784 190.053 137.79 190.009C138.796 189.965 139.751 189.555 140.474 188.857Z" fill="#FFB8B8"/>
<path d="M148.381 239.466H153.369L155.744 220.321H148.381V239.466Z" fill="#FFB8B8"/>
<path d="M162.991 244.075H147.312V238.048H157.487C158.947 238.048 160.347 238.625 161.379 239.652C162.411 240.678 162.991 242.071 162.991 243.524V244.075Z" fill="#2F2E41"/>
<path d="M113.882 231.735L118.558 233.465L127.492 216.345L120.591 213.791L113.882 231.735Z" fill="#FFB8B8"/>
<path d="M125.96 241.122L111.265 235.684L113.377 230.035L122.914 233.564C124.282 234.071 125.392 235.097 126 236.417C126.607 237.738 126.663 239.244 126.154 240.606L125.96 241.122Z" fill="#2F2E41"/>
<path d="M139.431 115.935C144.641 115.935 148.864 111.733 148.864 106.55C148.864 101.367 144.641 97.1647 139.431 97.1647C134.222 97.1647 129.998 101.367 129.998 106.55C129.998 111.733 134.222 115.935 139.431 115.935Z" fill="#FFB8B8"/>
<path d="M124.677 130.637C124.382 121.992 133.513 115.995 141.196 120.043C142.175 120.559 152.282 129.102 152.663 134.408C153.044 139.714 153.806 148.43 153.806 148.43L164.471 227.637L141.617 226.5L144.377 203.394L129.522 226.891L111.526 221.194L133.618 157.905C133.618 157.905 125.125 143.738 124.677 130.637Z" fill="#2F2E41"/>
<path d="M124.857 133.646L126.325 152.628C126.34 152.827 126.43 153.012 126.576 153.147C126.723 153.282 126.916 153.357 127.115 153.357H133.573C133.703 153.357 133.831 153.325 133.947 153.264C134.062 153.202 134.16 153.114 134.232 153.006C134.305 152.898 134.349 152.774 134.362 152.645C134.375 152.515 134.355 152.385 134.305 152.265L126.38 133.283C126.308 133.11 126.176 132.968 126.008 132.883C125.839 132.798 125.646 132.775 125.463 132.819C125.279 132.862 125.118 132.97 125.007 133.121C124.896 133.273 124.843 133.459 124.857 133.646Z" fill="#2F2E41"/>
<path d="M158.018 185.568C158.398 185.109 158.673 184.572 158.822 183.996C158.972 183.42 158.993 182.818 158.883 182.233C158.774 181.648 158.537 181.093 158.189 180.609C157.841 180.125 157.39 179.723 156.869 179.431L144.085 127.615L135.91 131.115L151.116 181.216C150.681 182.119 150.594 183.151 150.872 184.114C151.15 185.077 151.773 185.905 152.624 186.442C153.475 186.978 154.494 187.186 155.488 187.025C156.482 186.864 157.382 186.345 158.018 185.568Z" fill="#FFB8B8"/>
<path d="M137.046 123.039C137.046 123.039 134.38 128.344 137.046 137.819C139.712 147.293 141.617 155.252 141.617 155.252C141.617 155.252 147.711 151.462 150.378 152.599C153.044 153.736 146.16 127.342 146.16 127.342C146.16 127.342 141.998 118.491 137.046 123.039Z" fill="#2F2E41"/>
<path d="M141.645 108.014C141.772 106.067 144.241 106 146.203 105.982C148.164 105.963 150.509 106.033 151.619 104.424C152.352 103.361 152.212 101.884 151.606 100.744C151 99.604 150.004 98.7272 149.023 97.8836C146.492 95.7057 143.883 93.5451 140.844 92.1511C137.805 90.7571 134.243 90.1939 131.091 91.3129C127.219 92.6875 121.985 99.7635 121.533 103.829C121.081 107.894 122.714 112.039 125.467 115.077C128.22 118.115 134.52 116.889 138.485 117.97C136.074 114.575 137.663 108.408 141.525 106.823L141.645 108.014Z" fill="#2F2E41"/>
</g>
<defs>
<clipPath id="clip0_9_84">
<rect width="308" height="247" fill="white"/>
</clipPath>
</defs>
</svg>
